<svg width="268.000000" height="106.000000" viewBox="0 0 268 106" fill="none" xmlns="http://www.w3.org/2000/svg" xmlns:xlink="http://www.w3.org/1999/xlink">
	<desc>
			Created with Pixso.
	</desc>
	<defs/>
	<path id="404" d="M169.58 85.08Q177.8 71.52 177.8 53Q177.8 34.72 169.75 21.25Q168.21 18.66 166.36 16.25Q159.82 7.69 151.16 3.63Q143.39 0 133.91 0Q124.56 0 116.87 3.56Q108.16 7.61 101.57 16.25Q99.73 18.67 98.18 21.26Q90.15 34.73 90.15 53Q90.15 71.51 98.35 85.07Q99.83 87.51 101.57 89.79Q108.09 98.33 116.73 102.37Q124.47 106 133.91 106Q143.48 106 151.31 102.3Q159.87 98.26 166.35 89.8Q168.1 87.52 169.58 85.08ZM49.08 104.24L71.68 104.24L71.68 79.54L86.42 79.54L86.42 58.85L71.68 58.85L71.68 1.75L51.22 1.75L0 62.74L0 79.54L49.08 79.54L49.08 104.24ZM49.08 75.54L53.08 75.54L53.08 100.24L67.68 100.24L67.68 75.54L71.68 75.54L78.42 75.54L82.42 75.54L82.42 62.85L67.68 62.85L67.68 5.75L53.08 5.75L4 64.2L4 75.54L8 75.54L49.08 75.54ZM230.65 104.24L253.26 104.24L253.26 79.54L268 79.54L268 58.85L253.26 58.85L253.26 1.75L232.79 1.75L181.57 62.74L181.57 79.54L230.65 79.54L230.65 104.24ZM230.65 75.54L234.65 75.54L234.65 79.54L234.65 100.24L249.26 100.24L249.26 75.54L253.26 75.54L260 75.54L264 75.54L264 62.85L249.26 62.85L249.26 5.75L234.65 5.75L185.57 64.2L185.57 75.54L189.57 75.54L230.65 75.54ZM173.8 53C173.8 79.32 158.78 102 133.91 102C109.16 102 94.15 79.32 94.15 53C94.15 26.81 109.16 4 133.91 4C158.78 4 173.8 26.81 173.8 53ZM109.02 53C109.02 72.16 118.76 88.09 133.91 88.09C149.19 88.09 158.92 72.16 158.92 53C158.92 33.83 149.19 17.9 133.91 17.9C118.76 17.9 109.02 33.83 109.02 53ZM119.1 75.49Q113.02 66.54 113.02 53Q113.02 39.45 119.1 30.5Q122.98 24.78 128.25 22.86Q130.9 21.9 133.91 21.9Q137.02 21.9 139.76 22.92Q144.99 24.86 148.84 30.51Q154.92 39.44 154.92 53Q154.92 66.55 148.84 75.48Q144.99 81.13 139.76 83.07Q137.02 84.09 133.91 84.09Q130.9 84.09 128.25 83.13Q122.98 81.21 119.1 75.49ZM49.08 29.51L24.28 58.85L20.9 62.85L53.08 62.85L53.08 24.78L49.08 29.51ZM49.08 35.71L29.52 58.85L49.08 58.85L49.08 35.71ZM230.65 29.51L205.85 58.85L202.47 62.85L234.65 62.85L234.65 24.78L230.65 29.51ZM230.65 35.71L211.09 58.85L230.65 58.85L230.65 35.71Z" fill="#C53720" fill-opacity="1.000000" fill-rule="evenodd"/>
</svg>
