<svg width="173.414062" height="239.692871" viewBox="0 0 173.414 239.693" fill="none" xmlns="http://www.w3.org/2000/svg" xmlns:xlink="http://www.w3.org/1999/xlink">
	<desc>
			Created with Pixso.
	</desc>
	<defs/>
	<path id="Rectangle 96" d="M78.69 214L0 214L0 0L172 0L172 203.09L168 203.09L168 2L170 2L170 4L2 4L2 2L4 2L4 212L2 212L2 210L78.69 210L78.69 214Z" fill="#1D1D1D" fill-opacity="1.000000" fill-rule="evenodd"/>
	<g opacity="0.500000">
		<path id="Rectangle 100" d="M89.84 196L18 196L18 16L154 16L154 143.26L150 143.26L150 18L152 18L152 20L20 20L20 18L22 18L22 194L20 194L20 192L89.84 192L89.84 196Z" fill="#1D1D1D" fill-opacity="1.000000" fill-rule="evenodd"/>
	</g>
	<circle id="Ellipse 26" cx="129.500000" cy="177.500000" r="27.500000" stroke="#1D1D1D" stroke-opacity="1.000000" stroke-width="4.000000"/>
	<g opacity="0.500000">
		<path id="Ellipse 27" d="M146 178Q146 176.36 145.67 174.77Q145.35 173.22 144.74 171.77Q144.13 170.34 143.26 169.05Q142.4 167.77 141.31 166.68Q140.22 165.59 138.94 164.73Q137.65 163.86 136.22 163.25Q134.77 162.64 133.22 162.32Q131.63 162 130 162L130 166Q132.44 166 134.67 166.94Q136.82 167.85 138.48 169.51Q140.14 171.17 141.05 173.33Q142 175.55 142 178L146 178Z" fill="#1D1D1D" fill-opacity="1.000000" fill-rule="evenodd"/>
	</g>
	<path id="Rectangle 98" d="M131.7 206.81L112.72 239.67L102.41 225.42L104.03 224.25L103.83 226.24L86.33 224.45L99.74 201.24L103.2 203.24L91.34 223.77L89.61 222.77L89.81 220.79L105.13 222.35L114.15 234.82L112.53 236L110.8 235L128.24 204.81L131.7 206.81Z" fill="#1D1D1D" fill-opacity="1.000000" fill-rule="evenodd"/>
	<path id="Rectangle 99" d="M134.25 217.48L146.87 239.69L157.19 225.42L155.57 224.25L155.77 226.24L173.41 224.43L153.19 192.43L149.8 194.56L168.3 223.84L170 222.77L169.79 220.79L154.47 222.35L145.45 234.82L147.08 236L148.81 235.01L137.74 215.51L134.25 217.48Z" fill="#1D1D1D" fill-opacity="1.000000" fill-rule="evenodd"/>
	<path id="Vector 36" d="M55 49L117 49" stroke="#1D1D1D" stroke-opacity="1.000000" stroke-width="4.000000"/>
	<path id="Vector 37" d="M40 63L132 63" stroke="#1D1D1D" stroke-opacity="1.000000" stroke-width="4.000000"/>
	<path id="Vector 38" d="M69 101L132 101" stroke="#1D1D1D" stroke-opacity="1.000000" stroke-width="4.000000"/>
	<path id="Vector 40" d="M69 114L132 114" stroke="#1D1D1D" stroke-opacity="1.000000" stroke-width="4.000000"/>
	<path id="Vector 42" d="M69 127L132 127" stroke="#1D1D1D" stroke-opacity="1.000000" stroke-width="4.000000"/>
	<path id="Vector 44" d="M40 164L69 164" stroke="#1D1D1D" stroke-opacity="1.000000" stroke-width="4.000000"/>
	<path id="Vector 39" d="M40 101L52 101" stroke="#1D1D1D" stroke-opacity="1.000000" stroke-width="4.000000"/>
	<path id="Vector 41" d="M40 114L52 114" stroke="#1D1D1D" stroke-opacity="1.000000" stroke-width="4.000000"/>
	<path id="Vector 43" d="M40 127L52 127" stroke="#1D1D1D" stroke-opacity="1.000000" stroke-width="4.000000"/>
</svg>
