<?xml version="1.0" encoding="UTF-8" standalone="no" ?>
<!DOCTYPE svg PUBLIC "-//W3C//DTD SVG 1.1//EN" "http://www.w3.org/Graphics/SVG/1.1/DTD/svg11.dtd">
<svg xmlns="http://www.w3.org/2000/svg" xmlns:xlink="http://www.w3.org/1999/xlink" version="1.1" width="1080" height="1080" viewBox="0 0 1080 1080" xml:space="preserve">
<desc>Created with Fabric.js 5.2.4</desc>
<defs>
</defs>
<g transform="matrix(1 0 0 1 540 540)" id="ec32b813-243c-4116-afab-24bd682a75b2"  >
</g>
<g transform="matrix(1 0 0 1 540 540)" id="af1a4a58-67d2-4d35-8c34-0cb53bcbfa8b"  >
<rect style="stroke: none; stroke-width: 1; stroke-dasharray: none; stroke-linecap: butt; stroke-dashoffset: 0; stroke-linejoin: miter; stroke-miterlimit: 4; fill: rgb(255,255,255); fill-rule: nonzero; opacity: 1;" vector-effect="non-scaling-stroke"  x="-540" y="-540" rx="0" ry="0" width="1080" height="1080" />
</g>
<g transform="matrix(0 0 0 0 0 0)"  >
<g style=""   >
</g>
</g>
<g transform="matrix(14.99 0 0 14.99 540 540)" id="d6f6d303-2f20-48d9-adaf-c34970dcb954"  >
<circle style="stroke: rgb(0,0,0); stroke-width: 0; stroke-dasharray: none; stroke-linecap: butt; stroke-dashoffset: 0; stroke-linejoin: miter; stroke-miterlimit: 4; fill: rgb(60,60,60); fill-rule: nonzero; opacity: 1;" vector-effect="non-scaling-stroke"  cx="0" cy="0" r="35" />
</g>
<g transform="matrix(14.72 0 0 14.72 539.98 539.98)"  >
<g style="" vector-effect="non-scaling-stroke"   >
		<g transform="matrix(1 0 0 1 21.69 0)"  >
<path style="stroke: none; stroke-width: 1; stroke-dasharray: none; stroke-linecap: butt; stroke-dashoffset: 0; stroke-linejoin: miter; stroke-miterlimit: 4; fill: rgb(212,46,18); fill-rule: nonzero; opacity: 1;" vector-effect="non-scaling-stroke"  transform=" translate(-46.17, -24.62)" d="M 48.9815 0 L 43.3675 0 L 43.3675 49.2324 L 48.9815 49.2324 L 48.9815 0 Z" stroke-linecap="round" />
</g>
		<g transform="matrix(1 0 0 1 -2.34 -14.85)"  >
<path style="stroke: none; stroke-width: 1; stroke-dasharray: none; stroke-linecap: butt; stroke-dashoffset: 0; stroke-linejoin: miter; stroke-miterlimit: 4; fill: rgb(255,255,255); fill-rule: evenodd; opacity: 1;" vector-effect="non-scaling-stroke"  transform=" translate(-22.15, -9.77)" d="M 43.3677 0.00012207 L 27.8909 0.00012207 L 13.481 12.1207 L 9.63578 8.85404 L 0.927811 8.85404 L 4.90599 12.8818 L 8.88429 12.8818 L 31.0961 19.5429 L 25.2387 15.343 L 43.3677 15.343 L 43.3677 0.00012207 Z" stroke-linecap="round" />
</g>
		<g transform="matrix(1 0 0 1 -10.21 -3.08)"  >
<path style="stroke: none; stroke-width: 1; stroke-dasharray: none; stroke-linecap: butt; stroke-dashoffset: 0; stroke-linejoin: miter; stroke-miterlimit: 4; fill: rgb(255,255,255); fill-rule: evenodd; opacity: 1;" vector-effect="non-scaling-stroke"  transform=" translate(-14.28, -21.54)" d="M 9.06141 17.3132 L 21.1727 25.8165 L 11.6251 24.7424 L 7.38263 17.2538 L 9.06141 17.3132 Z" stroke-linecap="round" />
</g>
		<g transform="matrix(1 0 0 1 -2.81 12.5)"  >
<path style="stroke: none; stroke-width: 1; stroke-dasharray: none; stroke-linecap: butt; stroke-dashoffset: 0; stroke-linejoin: miter; stroke-miterlimit: 4; fill: rgb(255,255,255); fill-rule: evenodd; opacity: 1;" vector-effect="non-scaling-stroke"  transform=" translate(-21.68, -37.12)" d="M 43.3677 32.3508 L 9.72444 32.3508 L 27.4051 45.0608 L 4.59699 45.0608 L 0 25.0111 L 0 49.2325 L 12.7301 49.2325 L 12.7301 48.1715 L 43.3677 48.1715 L 43.3677 32.3508 Z" stroke-linecap="round" />
</g>
		<g transform="matrix(1 0 0 1 8.24 2.06)"  >
<path style="stroke: none; stroke-width: 1; stroke-dasharray: none; stroke-linecap: butt; stroke-dashoffset: 0; stroke-linejoin: miter; stroke-miterlimit: 4; fill: rgb(255,255,255); fill-rule: evenodd; opacity: 1;" vector-effect="non-scaling-stroke"  transform=" translate(-32.73, -26.67)" d="M 43.3677 26.1285 L 22.098 25.9047 L 35.64 27.4441 L 43.3677 27.4441 L 43.3677 26.1285 Z" stroke-linecap="round" />
</g>
</g>
</g>
<g transform="matrix(0 0 0 0 0 0)"  >
<g style=""   >
</g>
</g>
</svg>