<svg xmlns="http://www.w3.org/2000/svg" width="78" height="78" fill="none" style=""><rect id="backgroundrect" width="100%" height="100%" x="0" y="0" fill="none" stroke="none" style="" class=""/>





<g class="currentLayer" style=""><title>Layer 1</title><path fill="#3c3c3c" fill-opacity="1" stroke="#ffffff" stroke-opacity="1" stroke-width="0" stroke-dasharray="none" stroke-linejoin="round" stroke-linecap="butt" stroke-dashoffset="" fill-rule="nonzero" opacity="1" marker-start="" marker-mid="" marker-end="" d="M-7.190402584456024e-8,39.04762024917301 C-7.190402584456024e-8,17.47434936714081 17.474349342542048,-4.730526370622101e-8 39.047620224574246,-4.730526370622101e-8 C60.620891106606436,-4.730526370622101e-8 78.09524052105252,17.47434936714081 78.09524052105252,39.04762024917301 C78.09524052105252,60.6208911312052 60.620891106606436,78.09524054565128 39.047620224574246,78.09524054565128 C17.474349342542048,78.09524054565128 -7.190402584456024e-8,60.6208911312052 -7.190402584456024e-8,39.04762024917301 z" id="svg_8" class=""/><path d="M63.267213911056515,12.619047164916992 H57.65321391105652 V61.85144716491699 H63.267213911056515 V12.619047164916992 z" fill="#D42E12" id="svg_1" class=""/><path fill-rule="evenodd" clip-rule="evenodd" d="M57.65341391105652,12.619169234916992 H42.17661391105652 L27.76671391105652,24.73974716491699 L23.92149391105652,21.47308716491699 H15.213524911056517 L19.191703911056518,25.50084716491699 H23.17000391105652 L45.38181391105652,32.161947164916995 L39.52441391105652,27.962047164916996 H57.65341391105652 V12.619169234916992 z" fill="white" id="svg_2" class=""/><path fill-rule="evenodd" clip-rule="evenodd" d="M23.34712391105652,29.932247164916987 L35.45841391105652,38.435547164917 L25.91081391105652,37.361447164916996 L21.668343911056517,29.87284716491699 L23.34712391105652,29.932247164916987 z" fill="white" id="svg_3" class=""/><path fill-rule="evenodd" clip-rule="evenodd" d="M57.65341391105652,44.96984716491699 H24.01015391105652 L41.69081391105652,57.67984716491699 H18.882703911056517 L14.285713911056519,37.63014716491699 V61.851547164916994 H27.01581391105652 V60.790547164917 H57.65341391105652 V44.96984716491699 z" fill="white" id="svg_4" class=""/><path fill-rule="evenodd" clip-rule="evenodd" d="M57.65341391105652,38.747547164916995 L36.38371391105652,38.52374716491699 L49.92571391105652,40.06314716491699 H57.65341391105652 V38.747547164916995 z" fill="white" id="svg_5" class=""/></g></svg>