<svg width="56" height="10" viewBox="0 0 56 10" fill="none" xmlns="http://www.w3.org/2000/svg">
<path d="M5.43964 0L6.85578 2.79066L9.84612 3.32861L7.73101 5.59128L8.16299 8.71441L5.43964 7.32215L2.71629 8.71441L3.14827 5.59128L1.03316 3.32861L4.0235 2.79066L5.43964 0Z" fill="#FFCC00"/>
<path d="M16.8867 0L18.3028 2.79066L21.2931 3.32861L19.178 5.59128L19.61 8.71441L16.8867 7.32215L14.1633 8.71441L14.5953 5.59128L12.4802 3.32861L15.4705 2.79066L16.8867 0Z" fill="#FFCC00"/>
<path d="M28.3334 0L29.7496 2.79066L32.7399 3.32861L30.6248 5.59128L31.0568 8.71441L28.3334 7.32215L25.6101 8.71441L26.0421 5.59128L23.927 3.32861L26.9173 2.79066L28.3334 0Z" fill="#FFCC00"/>
<path d="M39.7802 0L41.1964 2.79066L44.1867 3.32861L42.0716 5.59128L42.5036 8.71441L39.7802 7.32215L37.0569 8.71441L37.4888 5.59128L35.3737 3.32861L38.3641 2.79066L39.7802 0Z" fill="#FFCC00"/>
<path d="M51.227 0L52.6431 2.79066L55.6335 3.32861L53.5184 5.59128L53.9503 8.71441L51.227 7.32215L48.5036 8.71441L48.9356 5.59128L46.8205 3.32861L49.8109 2.79066L51.227 0Z" fill="#FFCC00"/>
</svg>
